<svg id="visual" viewBox="0 0 900 675" width="900" height="675" xmlns="http://www.w3.org/2000/svg" xmlns:xlink="http://www.w3.org/1999/xlink" version="1.1"><rect x="0" y="0" width="900" height="675" fill="#001220"></rect><path d="M0 244L21.5 253.2C43 262.3 86 280.7 128.8 286.3C171.7 292 214.3 285 257.2 297.5C300 310 343 342 385.8 341.2C428.7 340.3 471.3 306.7 514.2 306.2C557 305.7 600 338.3 642.8 339.7C685.7 341 728.3 311 771.2 298.3C814 285.7 857 290.3 878.5 292.7L900 295L900 676L878.5 676C857 676 814 676 771.2 676C728.3 676 685.7 676 642.8 676C600 676 557 676 514.2 676C471.3 676 428.7 676 385.8 676C343 676 300 676 257.2 676C214.3 676 171.7 676 128.8 676C86 676 43 676 21.5 676L0 676Z" fill="#fa7268"></path><path d="M0 294L21.5 307.5C43 321 86 348 128.8 359.5C171.7 371 214.3 367 257.2 356.5C300 346 343 329 385.8 318.7C428.7 308.3 471.3 304.7 514.2 318.8C557 333 600 365 642.8 370.5C685.7 376 728.3 355 771.2 333.5C814 312 857 290 878.5 279L900 268L900 676L878.5 676C857 676 814 676 771.2 676C728.3 676 685.7 676 642.8 676C600 676 557 676 514.2 676C471.3 676 428.7 676 385.8 676C343 676 300 676 257.2 676C214.3 676 171.7 676 128.8 676C86 676 43 676 21.5 676L0 676Z" fill="#fe5e6e"></path><path d="M0 313L21.5 327.7C43 342.3 86 371.7 128.8 382C171.7 392.3 214.3 383.7 257.2 387.8C300 392 343 409 385.8 410.8C428.7 412.7 471.3 399.3 514.2 382.7C557 366 600 346 642.8 340C685.7 334 728.3 342 771.2 354.7C814 367.3 857 384.7 878.5 393.3L900 402L900 676L878.5 676C857 676 814 676 771.2 676C728.3 676 685.7 676 642.8 676C600 676 557 676 514.2 676C471.3 676 428.7 676 385.8 676C343 676 300 676 257.2 676C214.3 676 171.7 676 128.8 676C86 676 43 676 21.5 676L0 676Z" fill="#ff4878"></path><path d="M0 384L21.5 382.7C43 381.3 86 378.7 128.8 375.5C171.7 372.3 214.3 368.7 257.2 377.3C300 386 343 407 385.8 422.5C428.7 438 471.3 448 514.2 448.3C557 448.7 600 439.3 642.8 439.7C685.7 440 728.3 450 771.2 456.5C814 463 857 466 878.5 467.5L900 469L900 676L878.5 676C857 676 814 676 771.2 676C728.3 676 685.7 676 642.8 676C600 676 557 676 514.2 676C471.3 676 428.7 676 385.8 676C343 676 300 676 257.2 676C214.3 676 171.7 676 128.8 676C86 676 43 676 21.5 676L0 676Z" fill="#fd2d86"></path><path d="M0 501L21.5 496.7C43 492.3 86 483.7 128.8 479.3C171.7 475 214.3 475 257.2 465.8C300 456.7 343 438.3 385.8 430.8C428.7 423.3 471.3 426.7 514.2 425.8C557 425 600 420 642.8 429C685.7 438 728.3 461 771.2 475.2C814 489.3 857 494.7 878.5 497.3L900 500L900 676L878.5 676C857 676 814 676 771.2 676C728.3 676 685.7 676 642.8 676C600 676 557 676 514.2 676C471.3 676 428.7 676 385.8 676C343 676 300 676 257.2 676C214.3 676 171.7 676 128.8 676C86 676 43 676 21.5 676L0 676Z" fill="#f60097"></path><path d="M0 504L21.5 501.2C43 498.3 86 492.7 128.8 489.7C171.7 486.7 214.3 486.3 257.2 490.8C300 495.3 343 504.7 385.8 513C428.7 521.3 471.3 528.7 514.2 523.5C557 518.3 600 500.7 642.8 492.7C685.7 484.7 728.3 486.3 771.2 495C814 503.7 857 519.3 878.5 527.2L900 535L900 676L878.5 676C857 676 814 676 771.2 676C728.3 676 685.7 676 642.8 676C600 676 557 676 514.2 676C471.3 676 428.7 676 385.8 676C343 676 300 676 257.2 676C214.3 676 171.7 676 128.8 676C86 676 43 676 21.5 676L0 676Z" fill="#e900ac"></path><path d="M0 536L21.5 536C43 536 86 536 128.8 541C171.7 546 214.3 556 257.2 559.3C300 562.7 343 559.3 385.8 549C428.7 538.7 471.3 521.3 514.2 523C557 524.7 600 545.3 642.8 551.8C685.7 558.3 728.3 550.7 771.2 546C814 541.3 857 539.7 878.5 538.8L900 538L900 676L878.5 676C857 676 814 676 771.2 676C728.3 676 685.7 676 642.8 676C600 676 557 676 514.2 676C471.3 676 428.7 676 385.8 676C343 676 300 676 257.2 676C214.3 676 171.7 676 128.8 676C86 676 43 676 21.5 676L0 676Z" fill="#d300c5"></path><path d="M0 594L21.5 588.2C43 582.3 86 570.7 128.8 571C171.7 571.3 214.3 583.7 257.2 586.2C300 588.7 343 581.3 385.8 580.3C428.7 579.3 471.3 584.7 514.2 580.8C557 577 600 564 642.8 560.2C685.7 556.3 728.3 561.7 771.2 565.8C814 570 857 573 878.5 574.5L900 576L900 676L878.5 676C857 676 814 676 771.2 676C728.3 676 685.7 676 642.8 676C600 676 557 676 514.2 676C471.3 676 428.7 676 385.8 676C343 676 300 676 257.2 676C214.3 676 171.7 676 128.8 676C86 676 43 676 21.5 676L0 676Z" fill="#ad00e2"></path><path d="M0 633L21.5 632.3C43 631.7 86 630.3 128.8 625.2C171.7 620 214.3 611 257.2 605.7C300 600.3 343 598.7 385.8 600C428.7 601.3 471.3 605.7 514.2 612C557 618.3 600 626.7 642.8 628.8C685.7 631 728.3 627 771.2 623.5C814 620 857 617 878.5 615.5L900 614L900 676L878.5 676C857 676 814 676 771.2 676C728.3 676 685.7 676 642.8 676C600 676 557 676 514.2 676C471.3 676 428.7 676 385.8 676C343 676 300 676 257.2 676C214.3 676 171.7 676 128.8 676C86 676 43 676 21.5 676L0 676Z" fill="#6800ff"></path></svg>